<svg width="98" height="98" viewBox="0 0 98 98" fill="none" xmlns="http://www.w3.org/2000/svg">
<g clip-path="url(#clip0)">
<path d="M42.5508 40.5527H56.068V50.6907H42.5508V40.5527Z" fill="#566678"/>
<path d="M2 74.3442C2 76.2112 3.51277 77.7235 5.37931 77.7235H93.2414C95.1079 77.7235 96.6207 76.2112 96.6207 74.3442V70.9648H2V74.3442Z" fill="#566678"/>
<path d="M18.8965 40.5527H32.4137V50.6907H18.8965V40.5527Z" fill="#566678"/>
<path d="M66.207 40.5527H79.7243V50.6907H66.207V40.5527Z" fill="#566678"/>
<path d="M42.5508 20.2754H56.068V30.4134H42.5508V20.2754Z" fill="#566678"/>
<path d="M18.8965 20.2754H32.4137V30.4134H18.8965V20.2754Z" fill="#566678"/>
<path d="M96.3672 15.6246C96.3672 15.6114 96.3673 15.5955 96.3556 15.5823C96.2057 15.2407 96.0003 14.9265 95.7489 14.6519C95.7067 14.6055 95.6745 14.5522 95.6307 14.5073C95.5868 14.4634 95.5325 14.4312 95.4865 14.389C95.2114 14.1377 94.8973 13.9333 94.5556 13.7834L94.5139 13.7712C94.11 13.6049 93.6775 13.5194 93.2414 13.5172H89.8621V64.2069H86.4828V3.37931C86.4828 1.5133 84.97 0 83.1035 0H15.5172C13.6507 0 12.1379 1.5133 12.1379 3.37931V64.2069H8.75862V13.5172H5.37931C3.51277 13.5172 2 15.0305 2 16.8966V67.5862H96.6207V16.8966C96.6202 16.4604 96.5336 16.028 96.3672 15.6246ZM79.0345 3.37931H82.4138V6.75862H79.0345V3.37931ZM72.2759 3.37931H75.6552V6.75862H72.2759V3.37931ZM65.5172 3.37931H68.8966V6.75862H65.5172V3.37931ZM35.7931 64.2069H32.4138V60.8276H18.8966V64.2069H15.5172V60.8276C15.5172 58.9616 17.03 57.4483 18.8966 57.4483H32.4138C34.2803 57.4483 35.7931 58.9616 35.7931 60.8276V64.2069ZM35.7931 50.6897C35.7931 52.5567 34.2803 54.069 32.4138 54.069H18.8966C17.03 54.069 15.5172 52.5567 15.5172 50.6897V40.5517C15.5172 38.6857 17.03 37.1724 18.8966 37.1724H32.4138C34.2803 37.1724 35.7931 38.6857 35.7931 40.5517V50.6897ZM35.7931 30.4138C35.7931 32.2809 34.2803 33.7931 32.4138 33.7931H18.8966C17.03 33.7931 15.5172 32.2809 15.5172 30.4138V20.2759C15.5172 18.4098 17.03 16.8966 18.8966 16.8966H32.4138C34.2803 16.8966 35.7931 18.4098 35.7931 20.2759V30.4138ZM59.4483 64.2069H56.069V60.8276H42.5517V64.2069H39.1724V60.8276C39.1724 58.9616 40.6852 57.4483 42.5517 57.4483H56.069C57.9355 57.4483 59.4483 58.9616 59.4483 60.8276V64.2069ZM59.4483 50.6897C59.4483 52.5567 57.9355 54.069 56.069 54.069H42.5517C40.6852 54.069 39.1724 52.5567 39.1724 50.6897V40.5517C39.1724 38.6857 40.6852 37.1724 42.5517 37.1724H56.069C57.9355 37.1724 59.4483 38.6857 59.4483 40.5517V50.6897ZM59.4483 30.4138C59.4483 32.2809 57.9355 33.7931 56.069 33.7931H42.5517C40.6852 33.7931 39.1724 32.2809 39.1724 30.4138V20.2759C39.1724 18.4098 40.6852 16.8966 42.5517 16.8966H56.069C57.9355 16.8966 59.4483 18.4098 59.4483 20.2759V30.4138ZM83.1035 64.2069H79.7241V60.8276H66.2069V64.2069H62.8276V60.8276C62.8276 58.9616 64.3404 57.4483 66.2069 57.4483H79.7241C81.5907 57.4483 83.1035 58.9616 83.1035 60.8276V64.2069ZM83.1035 50.6897C83.1035 52.5567 81.5907 54.069 79.7241 54.069H66.2069C64.3404 54.069 62.8276 52.5567 62.8276 50.6897V40.5517C62.8276 38.6857 64.3404 37.1724 66.2069 37.1724H79.7241C81.5907 37.1724 83.1035 38.6857 83.1035 40.5517V50.6897ZM83.1035 30.4138C83.1035 32.2809 81.5907 33.7931 79.7241 33.7931H66.2069C64.3404 33.7931 62.8276 32.2809 62.8276 30.4138V20.2759C62.8276 18.4098 64.3404 16.8966 66.2069 16.8966H79.7241C81.5907 16.8966 83.1035 18.4098 83.1035 20.2759V30.4138ZM83.1035 13.5172H15.5172V10.1379H83.1035V13.5172Z" fill="#566678"/>
<path d="M56.5019 81.1035H42.1197L38.0646 94.6208H30.7246V98.0001H67.897V94.6208H60.557L56.5019 81.1035Z" fill="#566678"/>
<path d="M66.207 20.2754H79.7243V30.4134H66.207V20.2754Z" fill="#566678"/>
</g>
<circle cx="49" cy="38" r="26" fill="#E66DCB"/>
<path d="M35.8182 42C38.4773 42 40.054 40.3551 40.054 37.6278C40.054 34.9091 38.4773 33.2727 35.8778 33.2727H32.8608V42H35.8182ZM34.4418 40.6321V34.6406H35.7884C37.5611 34.6406 38.4858 35.6293 38.4858 37.6278C38.4858 39.6349 37.5611 40.6321 35.7415 40.6321H34.4418ZM44.3857 42.1278C45.9112 42.1278 46.9595 41.3821 47.2322 40.2443L45.7919 40.0824C45.5831 40.6364 45.0717 40.9261 44.407 40.9261C43.4098 40.9261 42.7493 40.2699 42.7365 39.1491H47.2962V38.6761C47.2962 36.3793 45.9155 35.3693 44.3047 35.3693C42.4297 35.3693 41.2067 36.7457 41.2067 38.7656C41.2067 40.8196 42.4126 42.1278 44.3857 42.1278ZM42.7408 38.1094C42.7876 37.2741 43.4055 36.571 44.326 36.571C45.2124 36.571 45.8089 37.2188 45.8175 38.1094H42.7408ZM48.6012 42H50.1438V38.0199C50.1438 37.2145 50.6808 36.669 51.3455 36.669C51.9975 36.669 52.445 37.108 52.445 37.7812V42H53.9577V37.9176C53.9577 37.1804 54.3967 36.669 55.1424 36.669C55.7646 36.669 56.2589 37.0355 56.2589 37.8452V42H57.8058V37.6065C57.8058 36.1449 56.962 35.3693 55.7603 35.3693C54.81 35.3693 54.0856 35.8381 53.7958 36.5668H53.7276C53.4762 35.8253 52.8413 35.3693 51.9592 35.3693C51.0813 35.3693 50.4251 35.821 50.1523 36.5668H50.0756V35.4545H48.6012V42ZM62.2259 42.1278C64.1435 42.1278 65.3622 40.777 65.3622 38.7528C65.3622 36.7244 64.1435 35.3693 62.2259 35.3693C60.3082 35.3693 59.0895 36.7244 59.0895 38.7528C59.0895 40.777 60.3082 42.1278 62.2259 42.1278ZM62.2344 40.892C61.1733 40.892 60.6534 39.946 60.6534 38.7486C60.6534 37.5511 61.1733 36.5923 62.2344 36.5923C63.2784 36.5923 63.7983 37.5511 63.7983 38.7486C63.7983 39.946 63.2784 40.892 62.2344 40.892Z" fill="white"/>
<defs>
<clipPath id="clip0">
<rect width="98" height="98" fill="white"/>
</clipPath>
</defs>
</svg>
