<svg width="98" height="98" viewBox="0 0 98 98" fill="none" xmlns="http://www.w3.org/2000/svg">
<path d="M50.237 30.489H50.0056C40.3287 30.489 31.8379 23.277 25.5129 16.977L19.2913 10.7652C18.7033 10.1797 18.2368 9.4845 17.9186 8.7194C17.6003 7.9543 17.4365 7.13425 17.4365 6.30608C17.4365 5.47791 17.6003 4.65786 17.9186 3.89276C18.2368 3.12766 18.7033 2.43251 19.2913 1.84701C20.4791 0.665317 22.0892 0.00156821 23.768 0.00156821C25.4468 0.00156821 27.0569 0.665317 28.2447 1.84701L34.486 8.05882C38.724 12.2801 44.9358 17.8644 50.0253 17.8644H50.2567C55.3462 17.8644 61.5777 12.2654 65.796 8.05882L72.0176 1.84701C72.6055 1.26144 73.3034 0.796932 74.0715 0.480022C74.8396 0.163112 75.6629 8.72573e-09 76.4943 0C77.3257 -8.72573e-09 78.149 0.163112 78.9171 0.480022C79.6852 0.796932 80.3831 1.26144 80.971 1.84701C81.5589 2.43258 82.0253 3.12776 82.3434 3.89285C82.6616 4.65794 82.8253 5.47796 82.8253 6.30608C82.8253 7.13421 82.6616 7.95423 82.3434 8.71932C82.0253 9.4844 81.5589 10.1796 80.971 10.7652L74.7297 16.9819C68.4047 23.277 59.914 30.489 50.237 30.489Z" fill="#E66DCB"/>
<path d="M76.4585 97.9664C75.6273 97.9681 74.804 97.8062 74.0358 97.4901C73.2677 97.174 72.5698 96.71 71.9822 96.1245L65.7449 89.9132C61.5097 85.7004 55.3019 80.116 50.2157 80.116H49.9845C44.8983 80.116 38.6709 85.7102 34.4553 89.9132L28.218 96.1343C27.0318 97.309 25.427 97.9684 23.7541 97.9684C22.0812 97.9684 20.4763 97.309 19.2901 96.1343C18.7025 95.5493 18.2363 94.8548 17.9183 94.0904C17.6002 93.3259 17.4365 92.5066 17.4365 91.6791C17.4365 90.8516 17.6002 90.0323 17.9183 89.2678C18.2363 88.5034 18.7025 87.8088 19.2901 87.2239L25.5274 81.0125C31.8679 74.6933 40.3532 67.4581 50.1222 67.512H50.2354C59.911 67.512 68.3913 74.7227 74.7122 81.0125L80.9495 87.2239C81.842 88.1035 82.4513 89.2278 82.7 90.4536C82.9487 91.6793 82.8255 92.951 82.3459 94.1068C81.8664 95.2625 81.0523 96.25 80.0074 96.9434C78.9624 97.6369 77.7338 98.0049 76.4781 98.0007L76.4585 97.9664Z" fill="#26E3E4"/>
<path d="M6.31154 80.5777C5.4826 80.5788 4.66158 80.4161 3.89546 80.0989C3.12934 79.7817 2.43317 79.3161 1.84678 78.7289C0.664231 77.5424 0 75.934 0 74.257C0 72.58 0.664231 70.9715 1.84678 69.785L8.06801 63.5503C12.3071 59.3021 17.9396 53.0624 17.8807 47.9685V47.8554C17.9248 42.7614 12.2924 36.5464 8.06801 32.2736L1.84678 26.0389C0.664231 24.8523 0 23.2439 0 21.5669C0 19.8899 0.664231 18.2815 1.84678 17.0949C3.03075 15.9098 4.63571 15.2441 6.30909 15.2441C7.98247 15.2441 9.58743 15.9098 10.7714 17.0949L16.9926 23.3296C23.3169 29.6725 30.5685 38.1936 30.5145 47.9144C30.5685 57.6352 23.3169 66.1563 16.9877 72.4992L10.7714 78.7289C10.1867 79.3171 9.49157 79.7833 8.72608 80.1006C7.96058 80.4179 7.13994 80.5801 6.31154 80.5777Z" fill="#5B64EE"/>
<path d="M91.6069 80.7289C90.7782 80.7307 89.9574 80.5679 89.1918 80.2499C88.4262 79.9318 87.731 79.4649 87.1464 78.876L80.9312 72.6438C74.608 66.3083 67.3634 57.7907 67.4222 48.0688C67.3683 38.3716 74.6129 29.8441 80.9312 23.5037L87.1464 17.2715C88.3288 16.086 89.9324 15.4199 91.6045 15.4199C93.2766 15.4199 94.8802 16.086 96.0625 17.2715C97.2449 18.4571 97.9091 20.0651 97.9091 21.7417C97.9091 23.4184 97.2449 25.0263 96.0625 26.2119L89.8521 32.4441C85.6122 36.6906 79.9851 42.9228 80.0489 48.0197V48.1278C80.0047 53.2247 85.6269 59.4618 89.8521 63.7083L96.0674 69.9405C96.9568 70.8231 97.564 71.9512 97.8118 73.1811C98.0596 74.4109 97.9368 75.6869 97.459 76.8465C96.9811 78.0061 96.1699 78.9969 95.1286 79.6927C94.0873 80.3885 92.8631 80.7577 91.6118 80.7535L91.6069 80.7289Z" fill="#27E7A2"/>
</svg>
